# xmcd
#
# Track frame offsets:
#	150
#	24589
#	48630
#	67517
#	82997
#	108845
#	137824
#	156464
#	175405
#
# Disc length: 2563 seconds
#
# Revision: 0
# Processed by: cddbd v1.5.2PL0 Copyright (c) Steve Scherf et al.
# Submitted via: EasyCDDAExtractor 11.5.3.1
#
DISCID=6f0a0109
DTITLE=Pomoc Duchowa - Uwielbiam Ciebie
DYEAR=2008
DGENRE=
TTITLE0=Hallelujah
TTITLE1=Figi
TTITLE2=Uwielbiac ciebie
TTITLE3=Skosztuj, zobacz
TTITLE4=Chwala 
TTITLE5=Chce Tobie spiewac
TTITLE6=Uwielbijmy Boga
TTITLE7=Nadzieja
TTITLE8=Ojcze nasz
EXTD=
EXTT0=
EXTT1=
EXTT2=
EXTT3=
EXTT4=
EXTT5=
EXTT6=
EXTT7=
EXTT8=
PLAYORDER=
